<svg width="32" height="32" viewBox="0 0 32 32" fill="none" xmlns="http://www.w3.org/2000/svg">
  <defs>
    <linearGradient id="stealthGradient" x1="0%" y1="0%" x2="100%" y2="100%">
      <stop offset="0%" style="stop-color:#1E40AF;stop-opacity:1" />
      <stop offset="25%" style="stop-color:#3B82F6;stop-opacity:1" />
      <stop offset="50%" style="stop-color:#8B5CF6;stop-opacity:1" />
      <stop offset="75%" style="stop-color:#EC4899;stop-opacity:1" />
      <stop offset="100%" style="stop-color:#F59E0B;stop-opacity:1" />
    </linearGradient>
    <linearGradient id="bridgeGradient" x1="0%" y1="0%" x2="100%" y2="0%">
      <stop offset="0%" style="stop-color:#3B82F6;stop-opacity:0.8" />
      <stop offset="50%" style="stop-color:#8B5CF6;stop-opacity:0.8" />
      <stop offset="100%" style="stop-color:#EC4899;stop-opacity:0.8" />
    </linearGradient>
  </defs>
  
  <!-- Background Circle -->
  <rect width="32" height="32" rx="8" fill="url(#stealthGradient)"/>
  
  <!-- Main Shield -->
  <path d="M16 4L12 6V12C12 15 14 18 16 19C18 18 20 15 20 12V6L16 4Z" 
        fill="white" 
        fill-opacity="0.9"/>
  
  <!-- Bridge Connection Lines -->
  <path d="M9 12L12 12" stroke="url(#bridgeGradient)" stroke-width="2" stroke-linecap="round" opacity="0.8"/>
  <path d="M20 12L23 12" stroke="url(#bridgeGradient)" stroke-width="2" stroke-linecap="round" opacity="0.8"/>
  
  <!-- Chain Nodes -->
  <circle cx="9" cy="12" r="1.5" fill="white" opacity="0.9"/>
  <circle cx="23" cy="12" r="1.5" fill="white" opacity="0.9"/>
  
  <!-- Privacy Lock Icon -->
  <rect x="14.5" y="13" width="3" height="2.5" rx="0.5" fill="url(#stealthGradient)" opacity="0.9"/>
  <path d="M15 13V12C15 11.5 15.5 11 16 11C16.5 11 17 11.5 17 12V13" 
        stroke="url(#stealthGradient)" 
        stroke-width="0.8" 
        fill="none" 
        opacity="0.9"/>
  
  <!-- Encryption Dots -->
  <circle cx="6" cy="9" r="0.5" fill="white" opacity="0.6"/>
  <circle cx="26" cy="9" r="0.5" fill="white" opacity="0.6"/>
  <circle cx="6" cy="15" r="0.5" fill="white" opacity="0.6"/>
  <circle cx="26" cy="15" r="0.5" fill="white" opacity="0.6"/>
</svg>
